<?xml version="1.0" encoding="UTF-8" standalone="no"?>
<!-- Created with Inkscape (http://www.inkscape.org/) -->
<svg
   xmlns:dc="http://purl.org/dc/elements/1.1/"
   xmlns:cc="http://web.resource.org/cc/"
   xmlns:rdf="http://www.w3.org/1999/02/22-rdf-syntax-ns#"
   xmlns:svg="http://www.w3.org/2000/svg"
   xmlns="http://www.w3.org/2000/svg"
   xmlns:sodipodi="http://sodipodi.sourceforge.net/DTD/sodipodi-0.dtd"
   xmlns:inkscape="http://www.inkscape.org/namespaces/inkscape"
   width="292.72668"
   height="905.30334"
   id="svg13034"
   sodipodi:version="0.32"
   inkscape:version="0.45.1"
   sodipodi:docbase="E:\Rok\Inked\Guitars"
   sodipodi:docname="ArmTheHomeless.svg"
   inkscape:output_extension="org.inkscape.output.svg.inkscape"
   version="1.0">
  <defs
     id="defs13036" />
  <sodipodi:namedview
     id="base"
     pagecolor="#ffffff"
     bordercolor="#666666"
     borderopacity="1.0"
     gridtolerance="10000"
     guidetolerance="10"
     objecttolerance="10"
     inkscape:pageopacity="0.0"
     inkscape:pageshadow="2"
     inkscape:zoom="0.98994952"
     inkscape:cx="31.847175"
     inkscape:cy="286.45896"
     inkscape:document-units="px"
     inkscape:current-layer="layer1"
     inkscape:window-width="950"
     inkscape:window-height="710"
     inkscape:window-x="20"
     inkscape:window-y="22" />
  <metadata
     id="metadata13039">
    <rdf:RDF>
      <cc:Work
         rdf:about="">
        <dc:format>image/svg+xml</dc:format>
        <dc:type
           rdf:resource="http://purl.org/dc/dcmitype/StillImage" />
      </cc:Work>
    </rdf:RDF>
  </metadata>
  <g
     inkscape:label="Layer 1"
     inkscape:groupmode="layer"
     id="layer1"
     transform="translate(-207.40664,-87.38996)">
    <g
       id="g4252">
      <path
         sodipodi:nodetypes="ccsscczsscssscc"
         id="path4527"
         d="M 340.45008,616.05037 C 331.30251,627.14814 322.42529,639.19219 308.86139,634.83285 C 275.30661,616.54987 290.6934,588.54005 278.98019,569.09419 C 268.9915,552.51135 250.00903,558.38487 243.12275,571.65544 C 216.1304,623.67247 247.68758,679.79694 256.78273,733.86768 C 256.79823,733.88318 259.3997,749.6575 241.31165,784.92876 C 215.91143,834.23353 206.39526,881.29207 208.54593,898.64117 C 210.69661,915.99026 226.97316,973.71138 296.05517,983.16231 C 369.60976,993.22511 444.12879,988.86844 469.79302,964.37982 C 498.60667,936.88604 513.09611,895.26069 481.31862,810.70507 C 461.80829,771.21787 470.83379,738.47817 482.17236,704.84023 C 491.67073,676.66155 507.25448,639.67254 467.23175,621.59975 C 466.11488,621.0954 451.13564,621.49423 445.11968,646.1877 C 438.41977,673.68849 420.13866,685.3429 397.65125,674.10527 L 340.45008,616.05037 z "
         style="fill:#7582af;fill-opacity:1;fill-rule:evenodd;stroke:#000000;stroke-width:1.69033623px;stroke-linecap:butt;stroke-linejoin:miter;stroke-opacity:1" />
      <path
         style="fill:#ffffff;fill-rule:evenodd;stroke:#000000;stroke-width:0.74932349px;stroke-linecap:butt;stroke-linejoin:miter;stroke-opacity:1"
         d="M 310.8673,636.14511 C 240.49305,613.27136 259.67295,657.42108 257.88213,677.77632 C 255.34043,683.15132 248.4555,707.28835 270.74995,707.29663 C 292.15977,738.82815 331.83445,743.73266 326.76285,686.85948 C 330.78566,679.78949 338.11374,673.95898 326.76285,661.12384 C 345.53845,639.60358 319.80411,636.15299 310.8673,636.14511 z "
         id="path2226"
         sodipodi:nodetypes="cccccc" />
      <path
         sodipodi:nodetypes="cccccc"
         id="path2224"
         d="M 288.75107,853.29899 C 210.17314,827.75881 231.58888,877.05516 229.5893,899.78324 C 220.51931,910.77043 212.71346,937.81582 243.95716,932.7448 C 267.86276,967.95204 312.16242,973.42827 306.4996,909.92526 C 310.99136,902.0311 319.1737,895.52091 306.4996,881.18955 C 327.46392,857.16062 298.72967,853.30779 288.75107,853.29899 z "
         style="fill:#ffffff;fill-rule:evenodd;stroke:#000000;stroke-width:0.8366738px;stroke-linecap:butt;stroke-linejoin:miter;stroke-opacity:1" />
      <path
         sodipodi:nodetypes="cccccc"
         id="path2230"
         d="M 462.4447,889.82165 C 392.90914,869.43191 411.86046,908.78714 410.09098,926.93188 C 407.57958,931.72317 400.7767,953.23901 422.80545,953.2464 C 439.03268,980.00713 472.11778,982.7074 478.1508,935.02865 C 482.12567,928.72643 489.36642,923.52909 478.1508,912.0878 C 496.70265,892.90455 471.275,889.82867 462.4447,889.82165 z "
         style="fill:#ffffff;fill-rule:evenodd;stroke:#000000;stroke-width:0.70323938px;stroke-linecap:butt;stroke-linejoin:miter;stroke-opacity:1" />
      <path
         sodipodi:nodetypes="cccccc"
         id="path2228"
         d="M 453.02823,731.19506 C 396.13147,712.70189 411.6382,748.39643 410.19034,764.85341 C 408.13541,769.19904 402.56901,788.71354 420.59382,788.72024 C 437.90341,814.21312 469.97994,818.17835 465.8796,772.19704 C 469.07061,766.52197 468.83708,765.91353 465.8796,751.39008 C 468.21862,732.38608 456.0246,730.6728 453.02823,731.19506 z "
         style="fill:#ffffff;fill-rule:evenodd;stroke:#000000;stroke-width:0.6058194px;stroke-linecap:butt;stroke-linejoin:miter;stroke-opacity:1" />
      <g
         transform="matrix(0.8366738,0,0,0.8366738,84.672988,162.1328)"
         id="g14724">
        <rect
           style="opacity:1;fill:#000000;fill-opacity:1;fill-rule:nonzero;stroke:none;stroke-width:2.36800003;stroke-linecap:round;stroke-linejoin:round;stroke-miterlimit:4;stroke-dasharray:none;stroke-dashoffset:0;stroke-opacity:1"
           id="rect13741"
           width="102.14286"
           height="52.857143"
           x="287.14285"
           y="635.93359"
           ry="1.8413522"/>
        <rect
           ry="1.8413522"
           y="744.505"
           x="287.14285"
           height="52.857143"
           width="102.14286"
           id="rect14720"
           style="opacity:1;fill:#000000;fill-opacity:1;fill-rule:nonzero;stroke:none;stroke-width:2.36800003;stroke-linecap:round;stroke-linejoin:round;stroke-miterlimit:4;stroke-dasharray:none;stroke-dashoffset:0;stroke-opacity:1" />
        <path
           style="fill:#000000;fill-rule:evenodd;stroke:#000000;stroke-width:1px;stroke-linecap:butt;stroke-linejoin:miter;stroke-opacity:1"
           d="M 293.11712,803.79075 C 288.90491,804.07492 285.4677,805.26326 285.25998,810.21933 L 285.25998,853.07647 L 298.21625,902.69263 L 375.44072,902.69263 L 389.54569,855.21933 L 389.54569,810.21933 C 389.85294,804.70215 386.01648,804.01928 382.40283,803.07647 L 293.11712,803.79075 z "
           id="path14722"
           sodipodi:nodetypes="ccccccccc"/>
      </g>
      <path
         style="fill:#999999;fill-rule:evenodd;stroke:#000000;stroke-width:1.9378562px;stroke-linecap:butt;stroke-linejoin:miter;stroke-opacity:1"
         d="M 371.82104,110.56527 L 370.83403,111.5633 C 370.83403,111.5633 360.9886,114.1392 359.31513,110.55045 C 357.64166,106.96168 360.46549,98.59318 364.14016,97.20822 C 367.81483,95.823277 374.01379,105.01061 374.01379,105.01061 L 374.07621,106.87307 L 378.63209,108.52066 L 377.1022,112.75113 L 371.82104,110.56527 z "
         id="path4498"
         sodipodi:nodetypes="ccssccccc"/>
      <path
         sodipodi:nodetypes="ccssccccc"
         id="path12964"
         d="M 364.56417,129.34775 L 363.57716,130.34577 C 363.57716,130.34577 353.73173,132.92167 352.05826,129.33292 C 350.3848,125.74415 353.20862,117.37565 356.8833,115.99069 C 360.55797,114.60575 366.75692,123.79308 366.75692,123.79308 L 366.81935,125.65555 L 371.37522,127.30313 L 369.84534,131.5336 L 364.56417,129.34775 z "
         style="fill:#999999;fill-rule:evenodd;stroke:#000000;stroke-width:1.9378562px;stroke-linecap:butt;stroke-linejoin:miter;stroke-opacity:1" />
      <path
         sodipodi:nodetypes="ccssccccc"
         id="path4500"
         d="M 356.45356,150.26459 L 355.46656,151.26262 C 355.46656,151.26262 345.62113,153.83852 343.94767,150.24977 C 342.27419,146.661 345.09802,138.2925 348.77269,136.90754 C 352.44737,135.52259 358.64632,144.70993 358.64632,144.70993 L 358.70874,146.57239 L 363.26462,148.21998 L 361.73473,152.45045 L 356.45356,150.26459 z "
         style="fill:#999999;fill-rule:evenodd;stroke:#000000;stroke-width:1.9378562px;stroke-linecap:butt;stroke-linejoin:miter;stroke-opacity:1" />
      <path
         style="fill:#999999;fill-rule:evenodd;stroke:#000000;stroke-width:1.9378562px;stroke-linecap:butt;stroke-linejoin:miter;stroke-opacity:1"
         d="M 350.47733,170.75456 L 349.49033,171.75258 C 349.49033,171.75258 339.6449,174.32849 337.97143,170.73973 C 336.29796,167.15096 339.12179,158.78246 342.79646,157.3975 C 346.47113,156.01256 352.67008,165.19989 352.67008,165.19989 L 352.73251,167.06236 L 357.28839,168.70994 L 355.7585,172.94042 L 350.47733,170.75456 z "
         id="path4502"
         sodipodi:nodetypes="ccssccccc"/>
      <path
         sodipodi:nodetypes="ccssccccc"
         id="path4504"
         d="M 342.79358,189.96391 L 341.80658,190.96193 C 341.80658,190.96193 331.96115,193.53784 330.28769,189.94908 C 328.61422,186.36031 331.43805,177.99182 335.11272,176.60686 C 338.78739,175.22191 344.98634,184.40924 344.98634,184.40924 L 345.04876,186.27171 L 349.60464,187.91929 L 348.07475,192.14977 L 342.79358,189.96391 z "
         style="fill:#999999;fill-rule:evenodd;stroke:#000000;stroke-width:1.9378562px;stroke-linecap:butt;stroke-linejoin:miter;stroke-opacity:1" />
      <path
         style="fill:#999999;fill-rule:evenodd;stroke:#000000;stroke-width:1.9378562px;stroke-linecap:butt;stroke-linejoin:miter;stroke-opacity:1"
         d="M 336.39048,210.027 L 335.40347,211.02502 C 335.40347,211.02502 325.55804,213.60093 323.88457,210.01217 C 322.21111,206.4234 325.03493,198.05491 328.7096,196.66995 C 332.38427,195.285 338.58323,204.47233 338.58323,204.47233 L 338.64566,206.3348 L 343.20153,207.98238 L 341.67164,212.21286 L 336.39048,210.027 z "
         id="path4506"
         sodipodi:nodetypes="ccssccccc"/>
      <path
         sodipodi:nodetypes="cccsccc"
         id="path4496"
         d="M 350.69508,242.10846 C 339.31177,240.40095 334.75844,233.00183 337.0351,219.911 C 337.5612,220.4371 361.23625,136.90838 377.16128,103.80117 C 386.67311,73.057612 414.19654,96.617532 417.71433,100.81305 C 430.65789,116.25026 413.72333,143.09075 401.06625,137.09738 C 420.24842,185.24757 409.8558,203.63973 389.96752,242.10846 L 350.69508,242.10846 z "
         style="fill:#251d2a;fill-opacity:1;fill-rule:evenodd;stroke:#000000;stroke-width:1.69033623px;stroke-linecap:butt;stroke-linejoin:miter;stroke-opacity:1" />
      <path
         sodipodi:nodetypes="ccccc"
         id="path12980"
         d="M 348.80949,241.17217 L 340.29856,688.2803 C 356.76609,692.63124 375.20855,693.03234 396.22758,688.2803 L 390.14832,241.17217 L 348.80949,241.17217 z "
         style="fill:#464049;fill-opacity:1;fill-rule:evenodd;stroke:#000000;stroke-width:2.40725589px;stroke-linecap:butt;stroke-linejoin:miter;stroke-opacity:1" />
      <rect
         ry="0.36063138"
         y="684.90479"
         x="339.36984"
         height="1.6574726"
         width="56.250599"
         id="rect12982"
         style="fill:#776a6c;fill-opacity:1;fill-rule:evenodd;stroke:#000000;stroke-width:0.5434469;stroke-miterlimit:4;stroke-dasharray:none;stroke-opacity:1" />
      <rect
         ry="0.36140832"
         y="675.44586"
         x="339.798"
         height="1.6610436"
         width="55.394428"
         id="rect12984"
         style="fill:#776a6c;fill-opacity:1;fill-rule:evenodd;stroke:#000000;stroke-width:0.53987604;stroke-miterlimit:4;stroke-dasharray:none;stroke-opacity:1" />
      <rect
         ry="0.36063138"
         y="664.27106"
         x="338.94006"
         height="1.6574726"
         width="56.250599"
         id="rect12986"
         style="fill:#776a6c;fill-opacity:1;fill-rule:evenodd;stroke:#000000;stroke-width:0.5434469;stroke-miterlimit:4;stroke-dasharray:none;stroke-opacity:1" />
      <rect
         ry="0.36063138"
         y="653.09454"
         x="338.93997"
         height="1.6574726"
         width="56.250599"
         id="rect12988"
         style="fill:#776a6c;fill-opacity:1;fill-rule:evenodd;stroke:#000000;stroke-width:0.5434469;stroke-miterlimit:4;stroke-dasharray:none;stroke-opacity:1" />
      <rect
         ry="0.36140838"
         y="640.62665"
         x="340.22791"
         height="1.6610436"
         width="55.394428"
         id="rect12990"
         style="fill:#776a6c;fill-opacity:1;fill-rule:evenodd;stroke:#000000;stroke-width:0.53987598;stroke-miterlimit:4;stroke-dasharray:none;stroke-opacity:1" />
      <rect
         ry="0.36179978"
         y="627.72974"
         x="340.65683"
         height="1.6628425"
         width="54.966362"
         id="rect12992"
         style="fill:#776a6c;fill-opacity:1;fill-rule:evenodd;stroke:#000000;stroke-width:0.53807706;stroke-miterlimit:4;stroke-dasharray:none;stroke-opacity:1" />
      <rect
         ry="0.36101896"
         y="614.83557"
         x="340.22879"
         height="1.6592537"
         width="55.822514"
         id="rect12994"
         style="fill:#776a6c;fill-opacity:1;fill-rule:evenodd;stroke:#000000;stroke-width:0.54166591;stroke-miterlimit:4;stroke-dasharray:none;stroke-opacity:1" />
      <rect
         ry="0.36219314"
         y="600.64728"
         x="341.08566"
         height="1.6646506"
         width="54.538303"
         id="rect12996"
         style="fill:#776a6c;fill-opacity:1;fill-rule:evenodd;stroke:#000000;stroke-width:0.53626913;stroke-miterlimit:4;stroke-dasharray:none;stroke-opacity:1" />
      <rect
         ry="0.36219314"
         y="584.74213"
         x="341.51563"
         height="1.6646506"
         width="54.538303"
         id="rect12998"
         style="fill:#776a6c;fill-opacity:1;fill-rule:evenodd;stroke:#000000;stroke-width:0.53626913;stroke-miterlimit:4;stroke-dasharray:none;stroke-opacity:1" />
      <rect
         ry="0.36298594"
         y="568.83514"
         x="341.51379"
         height="1.6682942"
         width="53.68222"
         id="rect13000"
         style="fill:#776a6c;fill-opacity:1;fill-rule:evenodd;stroke:#000000;stroke-width:0.53262544;stroke-miterlimit:4;stroke-dasharray:none;stroke-opacity:1" />
      <rect
         ry="0.3654142"
         y="551.20508"
         x="342.79782"
         height="1.6794547"
         width="51.11417"
         id="rect13002"
         style="fill:#776a6c;fill-opacity:1;fill-rule:evenodd;stroke:#000000;stroke-width:0.52146506;stroke-miterlimit:4;stroke-dasharray:none;stroke-opacity:1" />
      <rect
         ry="0.36500412"
         y="534.44122"
         x="342.36877"
         height="1.6775697"
         width="51.54216"
         id="rect13004"
         style="fill:#776a6c;fill-opacity:1;fill-rule:evenodd;stroke:#000000;stroke-width:0.52334976;stroke-miterlimit:4;stroke-dasharray:none;stroke-opacity:1" />
      <rect
         ry="0.36419052"
         y="514.66919"
         x="342.37085"
         height="1.6738305"
         width="52.398148"
         id="rect13006"
         style="fill:#776a6c;fill-opacity:1;fill-rule:evenodd;stroke:#000000;stroke-width:0.52708924;stroke-miterlimit:4;stroke-dasharray:none;stroke-opacity:1" />
      <rect
         ry="0.37051561"
         y="313.47684"
         x="346.22501"
         height="1.7029008"
         width="45.979214"
         id="rect13008"
         style="fill:#776a6c;fill-opacity:1;fill-rule:evenodd;stroke:#000000;stroke-width:0.49801892;stroke-miterlimit:4;stroke-dasharray:none;stroke-opacity:1" />
      <rect
         ry="0.37229607"
         y="280.80286"
         x="347.29572"
         height="1.7110838"
         width="44.267925"
         id="rect13010"
         style="fill:#776a6c;fill-opacity:1;fill-rule:evenodd;stroke:#000000;stroke-width:0.48983595;stroke-miterlimit:4;stroke-dasharray:none;stroke-opacity:1" />
      <rect
         ry="0.18706018"
         y="667.67908"
         x="353.33591"
         height="5.5882721"
         width="33.959503"
         id="rect13012"
         style="fill:#ffffff;fill-opacity:1;fill-rule:evenodd;stroke:#000000;stroke-width:0;stroke-miterlimit:4;stroke-dasharray:none;stroke-opacity:1" />
      <rect
         ry="0.18706018"
         y="644.46619"
         x="354.62549"
         height="5.5882721"
         width="32.240032"
         id="rect13014"
         style="fill:#ffffff;fill-opacity:1;fill-rule:evenodd;stroke:#000000;stroke-width:0;stroke-miterlimit:4;stroke-dasharray:none;stroke-opacity:1" />
      <rect
         ry="0.24461719"
         y="618.67426"
         x="353.33575"
         height="7.3077412"
         width="32.669899"
         id="rect13016"
         style="fill:#ffffff;fill-opacity:1;fill-rule:evenodd;stroke:#000000;stroke-width:0;stroke-miterlimit:4;stroke-dasharray:none;stroke-opacity:1" />
      <rect
         ry="0.3165634"
         y="589.44324"
         x="352.90601"
         height="9.457077"
         width="32.240032"
         id="rect13018"
         style="fill:#ffffff;fill-opacity:1;fill-rule:evenodd;stroke:#000000;stroke-width:0;stroke-miterlimit:4;stroke-dasharray:none;stroke-opacity:1" />
      <rect
         ry="0.37412041"
         y="537.85919"
         x="353.67126"
         height="11.176544"
         width="31.810169"
         id="rect13020"
         style="fill:#ffffff;fill-opacity:1;fill-rule:evenodd;stroke:#000000;stroke-width:0;stroke-miterlimit:4;stroke-dasharray:none;stroke-opacity:1" />
      <rect
         ry="0.71946234"
         y="376.65906"
         x="356.96338"
         height="21.493357"
         width="22.782957"
         id="rect13022"
         style="fill:#ffffff;fill-opacity:1;fill-rule:evenodd;stroke:#000000;stroke-width:0;stroke-miterlimit:4;stroke-dasharray:none;stroke-opacity:1" />
      <rect
         ry="0.37412041"
         y="242.11061"
         x="347.29144"
         height="6.0181394"
         width="44.706177"
         id="rect13024"
         style="fill:#776a6c;fill-opacity:1;fill-rule:evenodd;stroke:#000000;stroke-width:1.20362794;stroke-miterlimit:4;stroke-dasharray:none;stroke-opacity:1" />
      <rect
         ry="0.80579782"
         y="251.99757"
         x="358.4679"
         height="24.072557"
         width="22.782957"
         id="rect13028"
         style="fill:#ffffff;fill-opacity:1;fill-rule:evenodd;stroke:#000000;stroke-width:0;stroke-miterlimit:4;stroke-dasharray:none;stroke-opacity:1" />
      <rect
         ry="0.80579782"
         y="316.47763"
         x="357.82321"
         height="24.072557"
         width="22.782957"
         id="rect13030"
         style="fill:#ffffff;fill-opacity:1;fill-rule:evenodd;stroke:#000000;stroke-width:0;stroke-miterlimit:4;stroke-dasharray:none;stroke-opacity:1" />
      <rect
         ry="0.60434836"
         y="429.10284"
         x="356.5336"
         height="18.05442"
         width="22.782957"
         id="rect13032"
         style="fill:#ffffff;fill-opacity:1;fill-rule:evenodd;stroke:#000000;stroke-width:0;stroke-miterlimit:4;stroke-dasharray:none;stroke-opacity:1" />
      <rect
         ry="0.48923439"
         y="475.95828"
         x="356.5336"
         height="14.615482"
         width="22.782957"
         id="rect13034"
         style="fill:#ffffff;fill-opacity:1;fill-rule:evenodd;stroke:#000000;stroke-width:0;stroke-miterlimit:4;stroke-dasharray:none;stroke-opacity:1" />
      <rect
         ry="0.36792195"
         y="372.3746"
         x="344.9415"
         height="1.6909803"
         width="48.546494"
         id="rect13036"
         style="fill:#776a6c;fill-opacity:1;fill-rule:evenodd;stroke:#000000;stroke-width:0.50993943;stroke-miterlimit:4;stroke-dasharray:none;stroke-opacity:1" />
      <rect
         ry="0.37007701"
         y="343.56854"
         x="346.2261"
         height="1.7008852"
         width="46.407059"
         id="rect13038"
         style="fill:#776a6c;fill-opacity:1;fill-rule:evenodd;stroke:#000000;stroke-width:0.50003451;stroke-miterlimit:4;stroke-dasharray:none;stroke-opacity:1" />
      <rect
         ry="0.36877659"
         y="399.88409"
         x="345.36932"
         height="1.6949083"
         width="47.690689"
         id="rect13040"
         style="fill:#776a6c;fill-opacity:1;fill-rule:evenodd;stroke:#000000;stroke-width:0.50601149;stroke-miterlimit:4;stroke-dasharray:none;stroke-opacity:1" />
      <rect
         ry="0.36792195"
         y="425.67813"
         x="344.51157"
         height="1.6909803"
         width="48.546494"
         id="rect13042"
         style="fill:#776a6c;fill-opacity:1;fill-rule:evenodd;stroke:#000000;stroke-width:0.50993943;stroke-miterlimit:4;stroke-dasharray:none;stroke-opacity:1" />
      <rect
         ry="0.36877659"
         y="449.31885"
         x="344.07974"
         height="1.6949083"
         width="47.690689"
         id="rect13044"
         style="fill:#776a6c;fill-opacity:1;fill-rule:evenodd;stroke:#000000;stroke-width:0.50601149;stroke-miterlimit:4;stroke-dasharray:none;stroke-opacity:1" />
      <rect
         ry="0.36582649"
         y="472.53842"
         x="343.65662"
         height="1.6813493"
         width="50.686199"
         id="rect13046"
         style="fill:#776a6c;fill-opacity:1;fill-rule:evenodd;stroke:#000000;stroke-width:0.51957023;stroke-miterlimit:4;stroke-dasharray:none;stroke-opacity:1" />
      <rect
         ry="0.3654142"
         y="494.03275"
         x="343.22772"
         height="1.6794547"
         width="51.11417"
         id="rect13048"
         style="fill:#776a6c;fill-opacity:1;fill-rule:evenodd;stroke:#000000;stroke-width:0.52146506;stroke-miterlimit:4;stroke-dasharray:none;stroke-opacity:1" />
      <path
         id="flowRoot2275"
         d="M -325.32031,491.05813 L -325.32031,482.46829 L -324.18359,482.46829 L -324.18359,485.99563 L -319.71875,485.99563 L -319.71875,482.46829 L -318.58203,482.46829 L -318.58203,491.05813 L -319.71875,491.05813 L -319.71875,487.0093 L -324.18359,487.0093 L -324.18359,491.05813 L -325.32031,491.05813 z M -317.0293,486.87454 C -317.0293,485.44876 -316.64649,484.33255 -315.88086,483.52591 C -315.11524,482.71927 -314.12696,482.31595 -312.91602,482.31594 C -312.12305,482.31595 -311.40821,482.50541 -310.77148,482.8843 C -310.13477,483.26322 -309.64942,483.79154 -309.31543,484.46926 C -308.98145,485.147 -308.81446,485.91556 -308.81445,486.77493 C -308.81446,487.64603 -308.99024,488.42532 -309.3418,489.11282 C -309.69337,489.80032 -310.19141,490.32083 -310.83594,490.67434 C -311.48047,491.02786 -312.17579,491.20462 -312.92188,491.20462 C -313.73047,491.20462 -314.45313,491.0093 -315.08984,490.61868 C -315.72656,490.22805 -316.20899,489.69485 -316.53711,489.01907 C -316.86524,488.34329 -317.0293,487.62845 -317.0293,486.87454 L -317.0293,486.87454 z M -315.85742,486.89212 C -315.85742,487.92728 -315.5791,488.7427 -315.02246,489.33841 C -314.46582,489.93411 -313.76758,490.23196 -312.92773,490.23196 C -312.07227,490.23196 -311.36817,489.93118 -310.81543,489.32962 C -310.2627,488.72806 -309.98634,487.87454 -309.98633,486.76907 C -309.98634,486.06986 -310.1045,485.4595 -310.34082,484.93801 C -310.57716,484.41654 -310.92286,484.01224 -311.37793,483.72512 C -311.83301,483.43802 -312.34376,483.29447 -312.91016,483.29446 C -313.71485,483.29447 -314.40723,483.57083 -314.9873,484.12356 C -315.56738,484.6763 -315.85742,485.59915 -315.85742,486.89212 L -315.85742,486.89212 z M -307.39063,491.05813 L -307.39063,482.46829 L -305.67969,482.46829 L -303.64648,488.55032 C -303.45899,489.11673 -303.32227,489.54056 -303.23633,489.8218 C -303.13868,489.50931 -302.98633,489.05032 -302.7793,488.44485 L -300.72266,482.46829 L -299.19336,482.46829 L -299.19336,491.05813 L -300.28906,491.05813 L -300.28906,483.86868 L -302.78516,491.05813 L -303.81055,491.05813 L -306.29492,483.74563 L -306.29492,491.05813 L -307.39063,491.05813 z M -297.32422,491.05813 L -297.32422,482.46829 L -291.11328,482.46829 L -291.11328,483.48196 L -296.1875,483.48196 L -296.1875,486.11282 L -291.43555,486.11282 L -291.43555,487.12063 L -296.1875,487.12063 L -296.1875,490.04446 L -290.91406,490.04446 L -290.91406,491.05813 L -297.32422,491.05813 z M -289.37891,491.05813 L -289.37891,482.46829 L -288.24219,482.46829 L -288.24219,490.04446 L -284.01172,490.04446 L -284.01172,491.05813 L -289.37891,491.05813 z M -282.62891,491.05813 L -282.62891,482.46829 L -276.41797,482.46829 L -276.41797,483.48196 L -281.49219,483.48196 L -281.49219,486.11282 L -276.74023,486.11282 L -276.74023,487.12063 L -281.49219,487.12063 L -281.49219,490.04446 L -276.21875,490.04446 L -276.21875,491.05813 L -282.62891,491.05813 z M -275.02344,488.29837 L -273.95117,488.20462 C -273.90039,488.63431 -273.78223,488.98684 -273.59668,489.26223 C -273.41113,489.53763 -273.12305,489.76028 -272.73242,489.9302 C -272.3418,490.10012 -271.90235,490.18509 -271.41406,490.18508 C -270.98047,490.18509 -270.59766,490.12063 -270.26563,489.99173 C -269.9336,489.86282 -269.68653,489.68606 -269.52441,489.46145 C -269.36231,489.23684 -269.28126,488.99173 -269.28125,488.7261 C -269.28126,488.45657 -269.35938,488.22122 -269.51563,488.02005 C -269.67188,487.81888 -269.92969,487.64993 -270.28906,487.51321 C -270.51954,487.42337 -271.0293,487.28372 -271.81836,487.09426 C -272.60742,486.90482 -273.16016,486.7261 -273.47656,486.55813 C -273.88672,486.34329 -274.19238,486.07669 -274.39355,485.75833 C -274.59473,485.43997 -274.69531,485.08353 -274.69531,484.68899 C -274.69531,484.2554 -274.57227,483.85013 -274.32617,483.47317 C -274.08008,483.09623 -273.7207,482.81009 -273.24805,482.61477 C -272.77539,482.41947 -272.25,482.32181 -271.67188,482.3218 C -271.03516,482.32181 -270.47364,482.42435 -269.9873,482.62942 C -269.50098,482.83451 -269.12696,483.13626 -268.86523,483.53469 C -268.60352,483.93314 -268.4629,484.38431 -268.44336,484.88821 L -269.5332,484.97024 C -269.5918,484.42728 -269.79004,484.01712 -270.12793,483.73977 C -270.46583,483.46244 -270.96485,483.32376 -271.625,483.32376 C -272.3125,483.32376 -272.81348,483.44974 -273.12793,483.70169 C -273.44238,483.95365 -273.59961,484.25736 -273.59961,484.61282 C -273.59961,484.92142 -273.48828,485.17533 -273.26563,485.37454 C -273.04688,485.57376 -272.47559,485.77786 -271.55176,485.98684 C -270.62793,486.19583 -269.99415,486.37845 -269.65039,486.53469 C -269.1504,486.76517 -268.78126,487.05716 -268.54297,487.41067 C -268.30469,487.76419 -268.18555,488.17142 -268.18555,488.63235 C -268.18555,489.08938 -268.31641,489.52005 -268.57813,489.92434 C -268.83985,490.32864 -269.21583,490.64309 -269.70605,490.8677 C -270.19629,491.09231 -270.74805,491.20462 -271.36133,491.20462 C -272.13868,491.20462 -272.79004,491.09133 -273.31543,490.86477 C -273.84082,490.63821 -274.25293,490.29739 -274.55176,489.84231 C -274.85059,489.38723 -275.00781,488.87259 -275.02344,488.29837 L -275.02344,488.29837 z M -267.00781,488.29837 L -265.93555,488.20462 C -265.88477,488.63431 -265.7666,488.98684 -265.58105,489.26223 C -265.39551,489.53763 -265.10742,489.76028 -264.7168,489.9302 C -264.32618,490.10012 -263.88672,490.18509 -263.39844,490.18508 C -262.96485,490.18509 -262.58204,490.12063 -262.25,489.99173 C -261.91797,489.86282 -261.6709,489.68606 -261.50879,489.46145 C -261.34669,489.23684 -261.26563,488.99173 -261.26563,488.7261 C -261.26563,488.45657 -261.34376,488.22122 -261.5,488.02005 C -261.65626,487.81888 -261.91407,487.64993 -262.27344,487.51321 C -262.50391,487.42337 -263.01368,487.28372 -263.80273,487.09426 C -264.5918,486.90482 -265.14453,486.7261 -265.46094,486.55813 C -265.8711,486.34329 -266.17676,486.07669 -266.37793,485.75833 C -266.5791,485.43997 -266.67969,485.08353 -266.67969,484.68899 C -266.67969,484.2554 -266.55664,483.85013 -266.31055,483.47317 C -266.06445,483.09623 -265.70508,482.81009 -265.23242,482.61477 C -264.75977,482.41947 -264.23438,482.32181 -263.65625,482.3218 C -263.01954,482.32181 -262.45801,482.42435 -261.97168,482.62942 C -261.48536,482.83451 -261.11133,483.13626 -260.84961,483.53469 C -260.5879,483.93314 -260.44727,484.38431 -260.42773,484.88821 L -261.51758,484.97024 C -261.57618,484.42728 -261.77442,484.01712 -262.1123,483.73977 C -262.4502,483.46244 -262.94922,483.32376 -263.60938,483.32376 C -264.29688,483.32376 -264.79785,483.44974 -265.1123,483.70169 C -265.42676,483.95365 -265.58399,484.25736 -265.58398,484.61282 C -265.58399,484.92142 -265.47266,485.17533 -265.25,485.37454 C -265.03125,485.57376 -264.45996,485.77786 -263.53613,485.98684 C -262.61231,486.19583 -261.97852,486.37845 -261.63477,486.53469 C -261.13477,486.76517 -260.76563,487.05716 -260.52734,487.41067 C -260.28907,487.76419 -260.16993,488.17142 -260.16992,488.63235 C -260.16993,489.08938 -260.30079,489.52005 -260.5625,489.92434 C -260.82423,490.32864 -261.2002,490.64309 -261.69043,490.8677 C -262.18067,491.09231 -262.73243,491.20462 -263.3457,491.20462 C -264.12305,491.20462 -264.77442,491.09133 -265.2998,490.86477 C -265.8252,490.63821 -266.23731,490.29739 -266.53613,489.84231 C -266.83496,489.38723 -266.99219,488.87259 -267.00781,488.29837 L -267.00781,488.29837 z "
         style="fill:#800000"
         transform="matrix(-4.0900278e-2,-3.6957519,5.0416629,-2.9981631e-2,-2027.0258,-266.4243)" />
      <g
         style="fill:#1a1a1a"
         transform="matrix(1.3360948,1.0354163,-1.0354163,1.3360948,-11.487161,-714.09835)"
         id="g5523">
        <path
           sodipodi:type="arc"
           style="opacity:1;fill:#1a1a1a;fill-opacity:1;fill-rule:evenodd;stroke:#000000;stroke-width:1;stroke-linecap:round;stroke-linejoin:miter;stroke-miterlimit:4;stroke-dasharray:none;stroke-dashoffset:0;stroke-opacity:1"
           id="path5515"
           sodipodi:cx="770.87268"
           sodipodi:cy="553.22058"
           sodipodi:rx="5.9346461"
           sodipodi:ry="5.9346461"
           d="M 776.80733 553.22058 A 5.9346461 5.9346461 0 1 1  764.93803,553.22058 A 5.9346461 5.9346461 0 1 1  776.80733 553.22058 z"
           transform="matrix(1.0784932,0,0,1.0784932,-61.518453,-44.686771)" />
        <path
           transform="matrix(1.0784932,0,0,1.0784932,-39.800173,-33.575093)"
           d="M 776.80733 553.22058 A 5.9346461 5.9346461 0 1 1  764.93803,553.22058 A 5.9346461 5.9346461 0 1 1  776.80733 553.22058 z"
           sodipodi:ry="5.9346461"
           sodipodi:rx="5.9346461"
           sodipodi:cy="553.22058"
           sodipodi:cx="770.87268"
           id="path5517"
           style="opacity:1;fill:#1a1a1a;fill-opacity:1;fill-rule:evenodd;stroke:#000000;stroke-width:1;stroke-linecap:round;stroke-linejoin:miter;stroke-miterlimit:4;stroke-dasharray:none;stroke-dashoffset:0;stroke-opacity:1"
           sodipodi:type="arc"/>
        <path
           sodipodi:type="arc"
           style="opacity:1;fill:#1a1a1a;fill-opacity:1;fill-rule:evenodd;stroke:#000000;stroke-width:1;stroke-linecap:round;stroke-linejoin:miter;stroke-miterlimit:4;stroke-dasharray:none;stroke-dashoffset:0;stroke-opacity:1"
           id="path5521"
           sodipodi:cx="770.87268"
           sodipodi:cy="553.22058"
           sodipodi:rx="5.9346461"
           sodipodi:ry="5.9346461"
           d="M 776.80733 553.22058 A 5.9346461 5.9346461 0 1 1  764.93803,553.22058 A 5.9346461 5.9346461 0 1 1  776.80733 553.22058 z"
           transform="matrix(1.0784932,0,0,1.0784932,-23.385194,-18.927881)"/>
      </g>
      <g
         transform="matrix(-1.6616747,0.3099573,-0.3099573,-1.6616747,1462.4778,1647.3811)"
         id="g5546">
        <path
           style="fill:#2e3436;fill-opacity:1;fill-rule:evenodd;stroke:#000000;stroke-width:1px;stroke-linecap:butt;stroke-linejoin:miter;stroke-opacity:1"
           d="M 532.35039,514.70849 C 531.79819,538.84969 530.53802,557.44057 526.79455,577.84302 C 525.28786,579.4803 524.55271,586.01866 527.04709,584.40902 C 532.58048,573.1298 534.21686,537.8505 535.63338,514.70849 L 532.35039,514.70849 z "
           id="path5532"
           sodipodi:nodetypes="ccccc" />
        <rect
           style="fill:#cccccc;fill-opacity:1;fill-rule:evenodd;stroke:#000000;stroke-width:1;stroke-linecap:round;stroke-linejoin:miter;stroke-miterlimit:4;stroke-dasharray:none;stroke-dashoffset:0;stroke-opacity:1"
           id="rect5538"
           width="3.7880721"
           height="21.213203"
           x="545.84436"
           y="479.71756"
           ry="1.8940361"
           transform="matrix(0.9996392,2.6859927e-2,-2.6859927e-2,0.9996392,0,0)"/>
      </g>
      <path
         sodipodi:nodetypes="ccc"
         id="path13052"
         d="M 385.59592,118.85864 L 385.98156,242.44915 L 393.28517,899.11503"
         style="fill:#b3b3b3;fill-opacity:1;fill-rule:evenodd;stroke:#808080;stroke-width:1.20776391;stroke-linecap:butt;stroke-linejoin:miter;stroke-miterlimit:4;stroke-dasharray:none;stroke-opacity:1" />
      <path
         sodipodi:nodetypes="ccc"
         id="path13050"
         d="M 358.83361,199.30097 L 358.03652,242.56052 L 352.45034,900.3141"
         style="fill:#b3b3b3;fill-rule:evenodd;stroke:#808080;stroke-width:1.20681083;stroke-linecap:butt;stroke-linejoin:miter;stroke-miterlimit:4;stroke-dasharray:none;stroke-opacity:1" />
      <path
         sodipodi:nodetypes="ccc"
         id="path13056"
         d="M 372.79556,158.11466 L 372.22538,241.88326 L 371.79559,899.03849"
         style="fill:#b3b3b3;fill-rule:evenodd;stroke:#808080;stroke-width:1.20704448;stroke-linecap:butt;stroke-linejoin:miter;stroke-miterlimit:4;stroke-dasharray:none;stroke-opacity:1" />
      <path
         sodipodi:nodetypes="ccc"
         id="path13058"
         d="M 366.10876,179.48251 L 364.91407,244.11337 L 362.33565,900.41159"
         style="fill:#b3b3b3;fill-rule:evenodd;stroke:#808080;stroke-width:1.20745695;stroke-linecap:butt;stroke-linejoin:miter;stroke-miterlimit:4;stroke-dasharray:none;stroke-opacity:1" />
      <path
         sodipodi:nodetypes="ccc"
         id="path13074"
         d="M 351.46484,216.19121 L 351.93166,242.32229 L 343.76683,900.46924"
         style="fill:#b3b3b3;fill-rule:evenodd;stroke:#808080;stroke-width:1.20628703;stroke-linecap:butt;stroke-linejoin:miter;stroke-miterlimit:4;stroke-dasharray:none;stroke-opacity:1" />
      <path
         sodipodi:nodetypes="ccc"
         id="path13054"
         d="M 379.18981,137.42512 L 379.53304,209.23229 L 382.1116,897.95431"
         style="fill:#b3b3b3;fill-rule:evenodd;stroke:#808080;stroke-width:1.20676446;stroke-linecap:butt;stroke-linejoin:miter;stroke-miterlimit:4;stroke-dasharray:none;stroke-opacity:1" />
      <path
         transform="matrix(2.4072558,0,0,2.4072558,-695.76813,68.217521)"
         d="M 437.67858 60.219322 A 2.3214285 2.3214285 0 1 1  433.03572,60.219322 A 2.3214285 2.3214285 0 1 1  437.67858 60.219322 z"
         sodipodi:ry="2.3214285"
         sodipodi:rx="2.3214285"
         sodipodi:cy="60.219322"
         sodipodi:cx="435.35715"
         id="path13076"
         style="fill:#b3b3b3;fill-opacity:1;fill-rule:evenodd;stroke:none;stroke-width:1;stroke-miterlimit:4;stroke-dasharray:none;stroke-opacity:1"
         sodipodi:type="arc" />
      <path
         transform="matrix(2.4072558,0,0,2.4072558,-690.14467,49.640443)"
         d="M 437.67858 60.219322 A 2.3214285 2.3214285 0 1 1  433.03572,60.219322 A 2.3214285 2.3214285 0 1 1  437.67858 60.219322 z"
         sodipodi:ry="2.3214285"
         sodipodi:rx="2.3214285"
         sodipodi:cy="60.219322"
         sodipodi:cx="435.35715"
         id="path13066"
         style="fill:#b3b3b3;fill-opacity:1;fill-rule:evenodd;stroke:none;stroke-width:1;stroke-miterlimit:4;stroke-dasharray:none;stroke-opacity:1"
         sodipodi:type="arc" />
      <path
         transform="matrix(2.4072558,0,0,2.4072558,-682.46065,28.936088)"
         d="M 437.67858 60.219322 A 2.3214285 2.3214285 0 1 1  433.03572,60.219322 A 2.3214285 2.3214285 0 1 1  437.67858 60.219322 z"
         sodipodi:ry="2.3214285"
         sodipodi:rx="2.3214285"
         sodipodi:cy="60.219322"
         sodipodi:cx="435.35715"
         id="path13064"
         style="fill:#b3b3b3;fill-opacity:1;fill-rule:evenodd;stroke:none;stroke-width:1;stroke-miterlimit:4;stroke-dasharray:none;stroke-opacity:1"
         sodipodi:type="arc" />
      <path
         transform="matrix(2.4072558,0,0,2.4072558,-675.63067,8.2818917)"
         d="M 437.67858 60.219322 A 2.3214285 2.3214285 0 1 1  433.03572,60.219322 A 2.3214285 2.3214285 0 1 1  437.67858 60.219322 z"
         sodipodi:ry="2.3214285"
         sodipodi:rx="2.3214285"
         sodipodi:cy="60.219322"
         sodipodi:cx="435.35715"
         id="path13062"
         style="fill:#b3b3b3;fill-opacity:1;fill-rule:evenodd;stroke:none;stroke-width:1;stroke-miterlimit:4;stroke-dasharray:none;stroke-opacity:1"
         sodipodi:type="arc" />
      <path
         transform="matrix(2.4072558,0,0,2.4072558,-669.21858,-12.059907)"
         d="M 437.67858 60.219322 A 2.3214285 2.3214285 0 1 1  433.03572,60.219322 A 2.3214285 2.3214285 0 1 1  437.67858 60.219322 z"
         sodipodi:ry="2.3214285"
         sodipodi:rx="2.3214285"
         sodipodi:cy="60.219322"
         sodipodi:cx="435.35715"
         id="path13060"
         style="fill:#b3b3b3;fill-opacity:1;fill-rule:evenodd;stroke:none;stroke-width:1;stroke-miterlimit:4;stroke-dasharray:none;stroke-opacity:1"
         sodipodi:type="arc" />
      <path
         transform="matrix(2.4072558,0,0,2.4072558,-662.71482,-31.260266)"
         d="M 437.67858 60.219322 A 2.3214285 2.3214285 0 1 1  433.03572,60.219322 A 2.3214285 2.3214285 0 1 1  437.67858 60.219322 z"
         sodipodi:ry="2.3214285"
         sodipodi:rx="2.3214285"
         sodipodi:cy="60.219322"
         sodipodi:cx="435.35715"
         id="path13068"
         style="fill:#b3b3b3;fill-opacity:1;fill-rule:evenodd;stroke:none;stroke-width:1;stroke-miterlimit:4;stroke-dasharray:none;stroke-opacity:1"
         sodipodi:type="arc" />
      <rect
         ry="7.5869346"
         y="890.82013"
         x="336.87036"
         height="15.538227"
         width="62.750534"
         id="rect14733"
         style="fill:#1a1a1a;fill-opacity:1;fill-rule:nonzero;stroke:none;stroke-width:2.36800003;stroke-linecap:round;stroke-linejoin:round;stroke-miterlimit:4;stroke-dasharray:none;stroke-dashoffset:0;stroke-opacity:1" />
      <path
         sodipodi:nodetypes="cccc"
         id="path2260"
         d="M 323.40296,930.2093 L 378.33889,926.82863 L 409.18753,965.28378 C 365.22847,993.28314 340.43058,971.78282 323.40296,930.2093 z "
         style="fill:#c3b1bf;fill-opacity:1;fill-rule:evenodd;stroke:#000000;stroke-width:0.8366738px;stroke-linecap:butt;stroke-linejoin:miter;stroke-opacity:1" />
      <path
         style="fill:#fe2f00;fill-opacity:1;fill-rule:evenodd;stroke:#000000;stroke-width:0.67329347px;stroke-linecap:butt;stroke-linejoin:miter;stroke-opacity:1"
         d="M 334.31994,929.46746 L 378.52833,926.74694 L 403.35305,957.69282 C 367.97803,980.22464 348.02251,962.92277 334.31994,929.46746 z "
         id="path2262"
         sodipodi:nodetypes="cccc"/>
      <path
         style="fill:#ffff00"
         d="M 377.94124,954.9329 C 377.71,954.273 377.12285,953.73477 376.53824,953.64679 C 376.34296,953.6174 376.15842,953.53547 376.12816,953.46473 C 376.0979,953.39399 376.37089,952.96719 376.73481,952.51629 C 377.09874,952.06541 377.64259,951.26489 377.94336,950.73736 C 378.90338,949.05358 379.16752,948.26183 379.48768,946.10822 C 379.84002,943.73817 379.76124,942.68192 379.07276,940.54526 L 378.61845,939.1353 L 379.67206,938.35161 C 380.28308,937.89711 380.74253,937.4558 380.76581,937.30106 C 380.80346,937.05096 378.52091,933.82135 378.281,933.78525 C 378.22586,933.77694 377.65668,934.14621 377.01617,934.60581 L 375.8516,935.44145 L 374.95081,934.76511 C 371.2666,931.99885 366.50979,931.54005 362.41307,933.55585 C 359.41551,935.03079 357.33626,937.48332 356.26303,940.81 C 355.92945,941.844 355.88144,942.11127 355.99538,942.29993 C 356.15979,942.57213 356.45072,942.45018 356.65641,942.02282 C 356.97098,941.36929 358.23501,940.00811 359.28369,939.19366 C 362.18753,936.93835 365.40886,936.13982 368.8503,936.82222 C 370.11867,937.07374 371.57205,937.68564 371.8895,938.10182 C 371.99827,938.24441 371.12292,938.95122 367.80518,941.39974 L 363.58242,944.51618 L 362.43689,942.97031 C 361.72167,942.00512 361.18915,941.40905 361.01923,941.38348 C 360.75141,941.34317 358.89791,942.64987 358.85934,942.90618 C 358.84907,942.97445 358.97337,943.42182 359.13555,943.90034 C 359.40096,944.6834 359.41268,944.8782 359.2528,945.8486 L 359.07516,946.92681 L 361.49015,950.20821 C 362.81839,952.01297 363.99334,953.50289 364.10115,953.51911 C 364.32002,953.55204 367.98639,950.90086 368.01868,950.68629 C 368.02997,950.61125 367.66265,950.04341 367.20239,949.42444 C 366.74214,948.80546 366.37474,948.23811 366.38595,948.16366 C 366.39715,948.08921 368.2769,946.65 370.56315,944.96543 C 375.26355,941.50206 374.8658,941.63953 375.1864,943.3675 C 375.40905,944.56749 375.03599,947.20926 374.45327,948.55903 C 373.649,950.42201 372.43524,952.06104 370.9304,953.31624 C 370.53772,953.64377 370.21029,953.95258 370.20278,954.00248 C 370.16881,954.22818 371.70917,956.13954 371.95199,956.17297 C 372.09851,956.19315 372.61696,955.96815 373.10411,955.67297 L 373.98984,955.13629 L 374.01652,955.67804 C 374.07162,956.79661 375.17276,957.75437 376.25378,957.624 C 377.65991,957.45442 378.40721,956.26263 377.94124,954.9329 z "
         id="path2333"
         sodipodi:nodetypes="cssssscccsscccssssssscccssscccsssssssssscccsc"/>
      <path
         transform="matrix(1.1614254e-2,-0.1887029,0.1887029,1.1614254e-2,200.03606,939.2818)"
         d="M 71.225103,797.30803 C 71.128915,797.40422 58.981037,791.6461 58.846681,791.66738 C 58.712326,791.68866 48.938363,800.91886 48.817159,800.8571 C 48.695956,800.79534 50.418349,787.46267 50.356592,787.34147 C 50.294836,787.22026 38.496079,780.77696 38.517358,780.6426 C 38.538638,780.50825 51.751014,778.02632 51.847201,777.93013 C 51.943389,777.83394 54.425319,764.62157 54.559674,764.60029 C 54.69403,764.57901 61.137334,776.37776 61.258538,776.43952 C 61.379742,776.50128 74.712416,774.77888 74.774172,774.90009 C 74.835928,775.02129 65.605734,784.79525 65.584454,784.92961 C 65.563174,785.06396 71.32129,797.21184 71.225103,797.30803 z "
         inkscape:randomized="0"
         inkscape:rounded="0.01"
         inkscape:flatsided="false"
         sodipodi:arg2="1.4137167"
         sodipodi:arg1="0.78539816"
         sodipodi:r2="8.1055536"
         sodipodi:r1="19.298937"
         sodipodi:cy="783.66162"
         sodipodi:cx="57.578693"
         sodipodi:sides="5"
         id="path2359"
         style="fill:#ffff00;fill-opacity:1;fill-rule:nonzero;stroke:none;stroke-width:2.36800003;stroke-linecap:round;stroke-linejoin:round;stroke-miterlimit:4;stroke-dasharray:none;stroke-dashoffset:0;stroke-opacity:1"
         sodipodi:type="star" />
      <path
         id="flowRoot2259"
         d="M -230.33008,492.08938 L -227.03125,483.49954 L -225.80664,483.49954 L -222.29102,492.08938 L -223.58594,492.08938 L -224.58789,489.48782 L -228.17969,489.48782 L -229.12305,492.08938 L -230.33008,492.08938 z M -227.85156,488.56204 L -224.93945,488.56204 L -225.83594,486.18313 C -226.10938,485.46048 -226.3125,484.86673 -226.44531,484.40188 C -226.55469,484.95267 -226.70899,485.49954 -226.9082,486.04251 L -227.85156,488.56204 z M -221.35352,492.08938 L -221.35352,483.49954 L -217.54492,483.49954 C -216.7793,483.49955 -216.19727,483.57669 -215.79883,483.73098 C -215.4004,483.88529 -215.08204,484.15775 -214.84375,484.54837 C -214.60548,484.939 -214.48634,485.37064 -214.48633,485.84329 C -214.48634,486.45267 -214.6836,486.96634 -215.07813,487.3843 C -215.47266,487.80228 -216.08204,488.0679 -216.90625,488.18118 C -216.60547,488.32571 -216.37696,488.46829 -216.2207,488.60891 C -215.88868,488.9136 -215.57423,489.29446 -215.27734,489.75149 L -213.7832,492.08938 L -215.21289,492.08938 L -216.34961,490.30227 C -216.68165,489.78665 -216.95508,489.39212 -217.16992,489.11868 C -217.38477,488.84524 -217.57715,488.65384 -217.74707,488.54446 C -217.917,488.43509 -218.08985,488.35892 -218.26563,488.31594 C -218.39454,488.2886 -218.60547,488.27493 -218.89844,488.27493 L -220.2168,488.27493 L -220.2168,492.08938 L -221.35352,492.08938 z M -220.2168,487.29055 L -217.77344,487.29055 C -217.25391,487.29056 -216.84766,487.23685 -216.55469,487.12942 C -216.26172,487.022 -216.03907,486.85013 -215.88672,486.6138 C -215.73438,486.37747 -215.65821,486.12064 -215.6582,485.84329 C -215.65821,485.43704 -215.80567,485.10306 -216.10059,484.84133 C -216.39551,484.57962 -216.86133,484.44876 -217.49805,484.44876 L -220.2168,484.44876 L -220.2168,487.29055 z M -212.73438,492.08938 L -212.73438,483.49954 L -211.02344,483.49954 L -208.99023,489.58157 C -208.80274,490.14798 -208.66602,490.57181 -208.58008,490.85305 C -208.48243,490.54056 -208.33008,490.08157 -208.12305,489.4761 L -206.06641,483.49954 L -204.53711,483.49954 L -204.53711,492.08938 L -205.63281,492.08938 L -205.63281,484.89993 L -208.12891,492.08938 L -209.1543,492.08938 L -211.63867,484.77688 L -211.63867,492.08938 L -212.73438,492.08938 z "
         style="fill:#800000"
         transform="matrix(-0.6671465,-4.4515661,4.4515661,-0.6671465,-2033.992,216.76825)"/>
      <path
         id="flowRoot2267"
         d="M -386.79492,501.18313 L -386.79492,493.60696 L -389.625,493.60696 L -389.625,492.59329 L -382.81641,492.59329 L -382.81641,493.60696 L -385.6582,493.60696 L -385.6582,501.18313 L -386.79492,501.18313 z M -381.60938,501.18313 L -381.60938,492.59329 L -380.47266,492.59329 L -380.47266,496.12063 L -376.00781,496.12063 L -376.00781,492.59329 L -374.87109,492.59329 L -374.87109,501.18313 L -376.00781,501.18313 L -376.00781,497.1343 L -380.47266,497.1343 L -380.47266,501.18313 L -381.60938,501.18313 z M -372.94922,501.18313 L -372.94922,492.59329 L -366.73828,492.59329 L -366.73828,493.60696 L -371.8125,493.60696 L -371.8125,496.23782 L -367.06055,496.23782 L -367.06055,497.24563 L -371.8125,497.24563 L -371.8125,500.16946 L -366.53906,500.16946 L -366.53906,501.18313 L -372.94922,501.18313 z "
         style="fill:#800000"
         transform="matrix(-0.6671465,-4.4515661,4.4515661,-0.6671465,-2168.4607,-640.61925)"/>
    </g>
  </g>
</svg>